<svg width="570" height="383" viewBox="0 0 570 383" fill="none" xmlns="http://www.w3.org/2000/svg">
<g clip-path="url(#clip0_3_5)">
<path d="M97.5774 365.831L106.165 368.175L119.224 335.899L106.549 332.439L97.5774 365.831Z" fill="#FFB6B6"/>
<path d="M94.8478 374.779L121.257 381.99L121.347 381.653C122.086 378.905 121.711 375.974 120.305 373.504C118.9 371.035 116.579 369.229 113.853 368.484L113.852 368.484L110.02 363.478L100.028 364.71L97.7224 364.08L94.8478 374.779Z" fill="#2F2E41"/>
<path d="M156.874 373.343L165.771 373.342L170.003 338.747L156.872 338.747L156.874 373.343Z" fill="#FFB6B6"/>
<path d="M156.56 382.699L183.921 382.698V382.349C183.921 379.502 182.799 376.771 180.801 374.758C178.804 372.745 176.096 371.614 173.271 371.614H173.271L168.273 367.792L158.948 371.614L156.56 371.614L156.56 382.699Z" fill="#2F2E41"/>
<path d="M160.672 173.858L172.613 344.337L153.384 346.054L126.559 219.709L129.531 292.812L118.884 350.307L102.609 342.374L102.879 282.507L81.5107 185.762L87.1981 173.858H160.672Z" fill="#2F2E41"/>
<path d="M84.2374 195.069L84.1181 194.901C77.7456 185.907 87.3299 164.296 88.7754 161.163C87.0589 160.602 85.5885 159.458 84.6147 157.926C83.641 156.395 83.224 154.57 83.4348 152.764L84.058 147.424L84.7075 142.186L80.0542 137.496L80.0411 137.379L77.3632 113.758L73.4696 98.0699C72.0025 92.1391 72.1275 85.9216 73.8318 80.0556C75.5361 74.1896 78.7582 68.8865 83.1675 64.6906L92.1676 63.25L103.105 52.6264H120.744L126.792 58.4512C138.082 60.4472 140.022 59.7955 149.719 71.5266L145.313 107.999L144.213 113.017L144.217 119.822L147.012 122.953C148.018 124.081 148.75 125.43 149.148 126.893C149.546 128.357 149.6 129.893 149.304 131.381L148.937 133.233C151.819 134.479 154.57 156.608 155.227 159.699L156.208 164.316C157.048 165.433 162.591 172.884 162.591 174.921C162.591 175.227 162.367 175.522 161.887 175.85C158.109 178.429 143.049 196.72 133.808 192.993C123.964 189.025 84.835 194.977 84.4408 195.038L84.2374 195.069Z" fill="#3F3D56"/>
<path d="M81.8676 152.658C81.8676 152.658 86.3972 126.853 81.8339 117.148L63.7311 118.451L66.4861 155.265L82.3113 196.14C82.0698 197.4 82.1631 198.701 82.5818 199.912C83.0005 201.124 83.7296 202.202 84.6952 203.037C85.6609 203.872 86.8285 204.435 88.0797 204.669C89.3309 204.902 90.6211 204.797 91.8193 204.366C93.0174 203.934 94.0809 203.19 94.9018 202.21C95.7227 201.23 96.2717 200.048 96.4931 198.785C96.7145 197.522 96.6004 196.223 96.1624 195.018C95.7245 193.814 94.9782 192.748 93.9994 191.928L81.8676 152.658Z" fill="#FFB6B6"/>
<path d="M63.7311 103.462L64.8515 91.1626C65.2732 86.5337 66.5986 82.0345 68.7514 77.9239C70.9043 73.8132 73.8421 70.1722 77.396 67.2102C79.6041 65.3835 82.2751 64.2157 85.107 63.8388C87.939 63.462 90.8191 63.8911 93.4218 65.0777C96.9392 66.7101 99.7105 69.628 101.175 73.2414C102.64 76.8548 102.689 80.8941 101.312 84.5426C97.1284 95.604 98.6393 107.302 90.4809 108.728L91.3672 112.979L83.3455 139.368L60.4985 136.7L63.7311 103.462Z" fill="#3F3D56"/>
<path d="M153.456 187.656C152.656 188.653 152.131 189.846 151.936 191.113C151.74 192.381 151.881 193.678 152.344 194.872C152.806 196.067 153.574 197.118 154.57 197.917C155.565 198.715 156.753 199.235 158.012 199.421C159.27 199.608 160.556 199.456 161.738 198.98C162.919 198.504 163.955 197.721 164.739 196.711C165.524 195.701 166.029 194.5 166.204 193.23C166.379 191.959 166.218 190.665 165.736 189.478L173.309 146.269L168.855 109.624L150.849 111.922C148.261 122.34 157.719 146.75 157.719 146.75L153.456 187.656Z" fill="#FFB6B6"/>
<path d="M175.572 126.881L153.686 134.01L145.26 120.759L145.303 116.415C137.026 116.628 131.664 93.817 125.41 83.7964C123.351 80.4906 122.614 76.52 123.348 72.6873C124.082 68.8546 126.233 65.4458 129.364 63.1503C131.686 61.4726 134.427 60.4829 137.277 60.293C140.127 60.1032 142.974 60.7207 145.494 62.0759C149.555 64.2785 153.143 67.2686 156.054 70.8743C158.964 74.48 161.138 78.6302 162.451 83.086L165.941 94.9253L175.572 126.881Z" fill="#3F3D56"/>
<path d="M110.735 47.4943C121.553 47.4943 130.324 38.6535 130.324 27.7477C130.324 16.842 121.553 8.0011 110.735 8.0011C99.916 8.0011 91.1457 16.842 91.1457 27.7477C91.1457 38.6535 99.916 47.4943 110.735 47.4943Z" fill="#FFB6B6"/>
<path d="M96.5185 41.6661C96.3475 41.5149 96.1861 41.3535 96.019 41.1982C96.013 41.2141 96.0121 41.2304 96.0057 41.2463L96.5185 41.6661Z" fill="#2F2E41"/>
<path d="M126.788 6.89525C125.814 5.31587 124.466 4.00563 122.865 3.0828C121.771 2.5477 120.621 2.13694 119.436 1.85808L116.336 1.00542C114.748 0.509958 113.113 0.178267 111.459 0.0154427C109.16 -0.0988335 106.876 0.425673 104.853 1.53166C102.831 2.63765 101.149 4.28259 99.9909 6.28682C99.0543 7.96148 98.303 10.0483 96.4954 10.661C95.0378 11.1551 93.4474 10.4582 91.9155 10.5934C91.0179 10.7245 90.1661 11.0768 89.4358 11.6191C88.7055 12.1613 88.1192 12.8768 87.7288 13.7021C86.9653 15.363 86.5896 17.178 86.6304 19.008C86.5702 23.1628 87.3746 27.2841 88.9917 31.1062C90.6088 34.9282 93.0027 38.3662 96.019 41.1982C96.5246 39.8548 95.6919 38.4044 95.0336 37.1193C94.3675 35.8189 93.9559 34.0061 95.0715 33.0695C96.3128 32.0274 98.3016 33.038 99.7697 32.3584C100.239 32.0864 100.635 31.7015 100.921 31.2379C101.207 30.7742 101.375 30.2464 101.409 29.7015C101.551 28.6218 101.403 27.5242 101.47 26.4372C101.537 25.3658 101.811 24.3181 102.279 23.3538C102.747 22.3895 103.399 21.5276 104.197 20.8173C104.996 20.1069 105.925 19.562 106.932 19.2138C107.94 18.8655 109.005 18.7206 110.068 18.7873C110.092 18.7889 110.117 18.7905 110.141 18.7923C113.483 19.0329 116.726 21.3347 119.941 20.3877C121.451 19.9432 122.738 18.8115 124.3 18.6212C126.028 18.4103 127.655 19.3939 129.123 20.3384C129.656 18.0549 129.724 15.6861 129.323 13.3754C128.922 11.0646 128.059 8.8601 126.788 6.89525Z" fill="#2F2E41"/>
<path d="M229.151 371.604L224.166 363.53L223.17 368.144C222.996 368.952 222.821 369.773 222.659 370.588C221.244 369.369 219.737 368.242 218.263 367.16C213.737 363.849 209.214 360.534 204.692 357.214L206.108 365.491C206.981 370.588 207.893 375.789 210.052 380.449C210.291 380.976 210.55 381.498 210.828 382.006H231.866C232.035 381.534 232.152 381.044 232.215 380.546C232.22 380.514 232.223 380.481 232.222 380.449C232.551 377.288 230.819 374.309 229.151 371.604Z" fill="#F0F0F0"/>
<path d="M253.629 382.8L49.741 383C49.5375 382.999 49.3427 382.917 49.1992 382.771C49.0557 382.626 48.9751 382.429 48.9751 382.224C48.9751 382.019 49.0557 381.822 49.1992 381.677C49.3427 381.531 49.5375 381.449 49.741 381.448L253.629 381.248C253.832 381.249 254.027 381.331 254.171 381.476C254.314 381.622 254.395 381.819 254.395 382.024C254.395 382.229 254.314 382.426 254.171 382.571C254.027 382.716 253.832 382.799 253.629 382.8Z" fill="#CACACA"/>
<path d="M464.378 126.042C464.334 148.856 455.825 170.829 440.524 187.639C425.223 204.45 404.238 214.883 381.693 216.887C359.149 218.892 336.676 212.322 318.692 198.47C300.709 184.619 288.517 164.487 284.512 142.033C280.507 119.578 284.979 96.4261 297.05 77.1274C309.12 57.8287 327.916 43.7797 349.741 37.7423C371.566 31.7048 394.843 34.1158 414.994 44.5011C435.145 54.8864 450.714 72.4949 458.639 93.8647C458.837 94.4013 459.029 94.9379 459.217 95.4797V95.4848C460.053 97.8664 460.79 100.292 461.427 102.763C463.393 110.364 464.384 118.187 464.378 126.042Z" fill="#3F3D56"/>
<path d="M363.134 63.975C359.033 61.7393 354.48 60.4773 349.821 60.2852C345.163 60.0931 340.522 60.9759 336.253 62.8664C332.495 64.5152 328.537 67.473 327.284 72.8143C332.355 69.7976 338.919 74.564 340.224 82.2103L339.919 82.295C339.23 87.5912 340.768 93.3573 343.747 96.6413C343.969 95.1595 344.515 93.746 345.346 92.5036C346.177 91.2611 347.272 90.2208 348.552 89.4583C350.74 88.0081 353.161 86.9546 354.832 84.4619C356.812 81.5066 357.315 77.1877 358.101 73.2477C358.888 69.3076 360.38 65.0728 363.134 63.975Z" fill="#04D361"/>
<path d="M334.749 109.044C333.345 111.17 331.469 112.504 329.786 114.165C327.842 115.946 326.568 118.349 326.176 120.967C325.963 122.817 326.292 124.698 326.247 126.569C326.201 128.439 325.583 130.545 324.32 131.01C322.328 131.735 320.807 128.005 318.758 127.744C317.131 127.54 315.666 130.12 316.137 132.359C316.609 134.598 318.824 135.589 320.097 134.127C321.248 136.074 320.437 139.606 318.708 140.204C318.525 141.431 318.343 142.652 318.165 143.879C313.795 140.797 309.379 137.664 305.663 133.151C301.53 128.175 298.966 122.067 298.301 115.611C297.819 110.424 298.534 104.49 296.172 100.499C294.281 97.3043 291.036 96.5989 288.116 96.7983C287.583 96.834 287.046 96.8953 286.513 96.9618C288.236 91.7476 290.423 86.7014 293.049 81.885C293.643 81.6279 294.195 81.2815 294.686 80.8577C297.404 78.5324 298.61 73.8253 300.816 70.5697C300.958 70.3602 301.105 70.1557 301.257 69.9564C303.513 66.987 306.535 65.4589 309.455 64.0381C315.919 60.8746 322.571 57.6702 329.395 58.1097L327.453 58.2988C325.187 64.6975 322.919 71.0962 320.649 77.4948C320.305 78.4761 319.956 79.459 319.605 80.4438C318.317 84.0826 316.989 87.9566 317.187 92.0299C317.303 94.4421 318.135 97.018 319.716 97.8459C321.192 98.6126 322.804 97.6722 324.229 96.742C324.832 96.3536 325.43 95.9651 326.034 95.5716C328.198 94.1661 330.597 92.7249 332.883 93.6653C334.977 94.5239 336.523 97.3911 336.817 100.483C337.087 103.489 336.36 106.5 334.749 109.044Z" fill="#04D361"/>
<path d="M347.625 152.729C341.302 148.805 334.979 144.88 328.656 140.956L328.764 140.677C324.833 142.187 323.2 149.231 323.85 154.992C324.5 160.752 326.703 165.902 327.816 171.515C329.316 179.196 328.75 187.142 326.175 194.528C334.489 185.124 341.847 174.904 348.139 164.02C349.017 162.648 349.687 161.152 350.125 159.579C350.589 157.904 350.424 156.115 349.661 154.555C349.143 153.785 348.443 153.158 347.625 152.729Z" fill="#04D361"/>
<path d="M322.671 81.3341C321.929 82.9411 321.814 84.7711 322.351 86.4593C322.974 87.8195 324.106 88.8761 325.499 89.399L328.993 91.1447C330.155 91.7254 331.408 92.312 332.593 91.8341C334.022 91.2579 335.013 88.9994 334.756 86.9028C334.483 84.6717 333.088 83.1371 331.798 81.8302C329.993 80.0013 328.187 78.1724 326.381 76.3435L325.364 77.5999C324.263 78.6821 323.353 79.9448 322.671 81.3341Z" fill="#04D361"/>
<path d="M445.65 105.185C447.221 105.558 448.793 105.931 450.365 106.304C450.091 111.655 447.46 116.608 443.931 118.401C442.461 119.148 440.823 119.424 439.606 120.819C438.506 122.086 437.948 124.059 437.436 125.945C436.539 129.236 435.642 132.528 434.744 135.819C433.781 139.366 432.544 143.306 430.039 144.584C427.89 145.683 425.431 144.339 423.778 142.085C422.125 139.831 421.116 136.8 420.138 133.846C420.198 137.066 418.713 140.224 416.609 141.344C414.5 142.463 411.934 141.451 410.525 138.952C409.511 137.158 409.09 134.792 408.096 132.972C407.103 131.153 405.019 130.11 403.934 131.817C403.219 132.952 403.31 134.689 402.955 136.131C402.777 137.088 402.307 137.964 401.611 138.64C400.915 139.315 400.027 139.754 399.072 139.897C398.193 139.877 397.328 139.677 396.529 139.309C395.73 138.94 395.013 138.412 394.423 137.756C391.318 134.554 389.297 130.446 388.648 126.016C388.208 123.893 388.264 121.695 388.81 119.597C389.434 117.609 390.94 116.076 392.435 116.454C393.419 114.359 391.477 111.579 389.728 111.824C387.974 112.069 386.6 113.965 385.16 115.422C383.725 116.878 381.717 117.936 380.272 116.49C380.305 117.019 380.127 117.539 379.779 117.936C379.431 118.334 378.94 118.575 378.415 118.607C378.364 118.611 378.312 118.612 378.26 118.611C377.299 118.333 376.406 117.856 375.638 117.211C372.328 115.13 368.125 116.51 365.772 120.446C367.243 114.139 369.397 106.902 373.915 105.42C375.76 104.812 377.773 105.313 379.517 104.26C382.605 102.394 383.228 95.3467 380.561 92.4387C380.901 95.1883 380.835 98.3979 379.395 100.279C377.955 102.159 374.934 100.933 375.116 98.1526C375.075 98.5436 374.913 98.9116 374.652 99.2037C374.39 99.4958 374.044 99.6971 373.663 99.7788C373.281 99.8605 372.884 99.8183 372.527 99.6584C372.171 99.4985 371.874 99.229 371.679 98.8885C370.721 97.4167 370.802 95.0095 371.481 93.2514C372.182 91.659 373.186 90.2212 374.437 89.0197C376.845 86.4183 379.289 83.7863 382.077 82.1508C384.871 80.5154 388.096 79.9634 390.894 81.5887C392.37 82.4472 393.667 83.8783 395.173 84.6346C395.527 84.856 395.921 85.0049 396.332 85.0729C396.743 85.1408 397.163 85.1266 397.568 85.0308C397.974 84.9351 398.356 84.7598 398.695 84.515C399.033 84.2701 399.32 83.9605 399.54 83.6038C399.556 83.5763 399.573 83.5485 399.589 83.5204C400.71 81.5374 400.182 78.5937 400.598 76.115C401.343 71.7351 405.688 69.6856 408.097 72.5783C406.297 72.1133 404.436 74.2598 404.213 76.8612C403.985 79.4626 405.288 82.0895 407.032 82.8766C409.962 84.1849 412.832 80.8935 415.047 77.8475C417.359 74.6584 419.675 71.471 421.993 68.2853C422.364 67.7429 422.779 67.2334 423.235 66.7623C423.962 66.0488 424.93 65.6402 425.944 65.6193C426.957 65.5985 427.941 65.9669 428.696 66.6499C431.038 68.5766 432.138 72.5273 434.06 75.2462C436.848 79.1968 441.021 80.1576 444.904 80.9242C447.799 81.4916 450.696 82.0623 453.594 82.6363C455.526 86.2596 457.212 90.011 458.639 93.8648C453.324 96.3078 448.816 100.237 445.65 105.185Z" fill="#04D361"/>
<path d="M461.427 102.763C460.833 104.527 460.509 106.373 460.464 108.236C457.98 105.18 457.584 99.4508 459.217 95.4848C460.053 97.8664 460.79 100.292 461.427 102.763Z" fill="#04D361"/>
<path d="M455.009 166.678C452.837 171.124 450.31 175.385 447.455 179.419C445.629 178.632 443.667 180.037 441.959 181.356C440.174 182.736 438.03 184.08 436.199 182.823C434.329 181.535 433.725 177.932 434.318 175.075C435 172.439 436.192 169.966 437.827 167.797C439.348 165.507 440.975 163.131 443.089 162.242C445.209 161.352 447.931 162.61 448.55 165.645L450.05 165.594C449.209 164.429 449.65 162.017 450.781 161.593C452.084 161.097 453.214 162.901 453.985 164.495C454.33 165.216 454.679 165.942 455.009 166.678Z" fill="#04D361"/>
<path d="M397.533 145.09C394.307 145.295 391.752 141.292 390.054 137.354C388.356 133.416 386.807 128.913 383.897 126.908C382.234 125.763 380.337 125.606 378.534 125.051C377.511 124.79 376.564 124.288 375.772 123.585C374.98 122.882 374.365 121.999 373.979 121.009L371.933 120.175C369.071 121.618 366.45 123.502 364.164 125.759C361.553 128.556 359.926 132.141 359.535 135.961C359.144 140.09 360.588 144.693 363.285 146.244C365.416 147.47 367.897 146.697 370.055 147.819C372.752 149.221 374.353 153.293 374.959 157.313C375.566 161.333 375.412 165.512 375.846 169.578C376.279 173.644 377.474 177.874 379.948 179.958C383.043 182.565 387.584 180.399 388.973 175.652C389.654 173.324 389.631 170.697 390.14 168.28C391.037 164.024 393.458 160.866 395.378 157.375C397.298 153.884 398.81 149.142 397.533 145.09Z" fill="#04D361"/>
<path d="M365.658 103.268C365.959 103.547 366.24 103.848 366.498 104.167C366.766 104.632 366.902 105.162 366.893 105.699C366.884 106.237 366.73 106.761 366.447 107.217C366.835 107.194 367.215 107.091 367.562 106.913C367.909 106.736 368.215 106.487 368.462 106.184C369.051 105.508 369.569 104.773 370.008 103.99C370.214 103.721 370.361 103.412 370.44 103.082C370.519 102.752 370.527 102.409 370.463 102.075C370.311 101.637 369.951 101.45 369.698 101.12C369.348 100.476 369.109 99.7757 368.991 99.0504C368.851 98.3706 368.526 97.7437 368.052 97.24C367.578 96.7364 366.974 96.376 366.307 96.1993L366.469 96.2305C366.194 96.3951 365.977 96.6423 365.848 96.9376C365.719 97.2328 365.685 97.5613 365.751 97.877C365.849 98.5147 366.255 99.0443 366.215 99.6947C366.157 100.63 365.229 101.069 365.172 102.004C365.163 102.474 365.338 102.928 365.658 103.268Z" fill="#04D361"/>
<path d="M360.132 87.3735L360.146 87.3707C360.245 87.2796 360.337 87.1807 360.421 87.0752L360.132 87.3735Z" fill="#04D361"/>
<path d="M361.099 91.7639C361.486 91.4212 361.773 90.9778 361.927 90.482C362.082 89.9863 362.098 89.4573 361.975 88.9529C361.74 87.8894 360.911 87.1743 360.146 87.3707C359.924 87.5975 359.649 87.7637 359.345 87.8537C359.042 87.9437 358.721 87.9545 358.413 87.8851C357.94 87.7623 357.421 87.4462 357.011 87.8055C356.776 88.0737 356.612 88.397 356.533 88.7457C356.381 89.2155 356.229 89.6853 356.077 90.1551C356.005 90.3232 355.986 90.5098 356.024 90.6891C356.053 90.761 356.1 90.8241 356.16 90.8725C356.22 90.9208 356.292 90.9526 356.368 90.965C357.279 91.2357 358.19 91.5064 359.101 91.7771C359.414 91.9228 359.756 91.9971 360.101 91.9948C360.447 91.9926 360.787 91.9137 361.099 91.7639Z" fill="#04D361"/>
<path d="M429.869 152.377C429.448 151.682 429.027 150.987 428.606 150.292C428.192 149.487 427.627 148.772 426.941 148.185C426.792 148.06 426.621 147.965 426.436 147.907C426.251 147.848 426.057 147.827 425.864 147.844C425.671 147.861 425.483 147.916 425.312 148.007C425.14 148.097 424.987 148.221 424.863 148.37L424.841 148.397L424.892 148.794C426.02 150.013 426.788 151.524 427.111 153.158C427.207 153.868 427.174 154.603 427.258 155.317C427.267 155.648 427.34 155.973 427.474 156.275C427.608 156.577 427.8 156.85 428.038 157.077C428.701 157.524 429.48 156.866 429.952 156.062C430.373 155.402 430.563 154.619 430.489 153.837C430.384 153.313 430.173 152.816 429.869 152.377Z" fill="#04D361"/>
<path d="M436.475 153.282C436.555 152.631 436.502 151.971 436.32 151.341C436.29 150.49 436.514 149.648 436.963 148.926C437.41 148.245 437.748 147.498 437.965 146.712C438.057 146.354 438.04 145.976 437.917 145.628C437.778 145.312 437.44 145.168 437.247 145.418L437.661 145.687C437.102 145.587 436.527 145.615 435.979 145.77C435.667 145.89 435.388 146.085 435.166 146.337C434.945 146.589 434.786 146.891 434.705 147.218C434.636 147.728 434.524 148.23 434.37 148.721C434.123 149.233 433.645 149.403 433.344 149.853C433.139 150.251 433.035 150.695 433.043 151.144C433.05 151.593 433.168 152.033 433.386 152.424C433.764 153.065 434.364 153.541 435.071 153.76C435.577 153.943 436.243 153.952 436.475 153.282Z" fill="#04D361"/>
<path d="M448.238 156.859C448.421 157.339 448.666 157.793 448.967 158.208C449.53 158.78 450.295 158.428 450.979 158.289C451.599 158.191 452.234 158.263 452.816 158.498C453.399 158.734 453.907 159.124 454.288 159.627C454.023 158.295 453.444 157.047 452.601 155.987C451.759 154.927 450.676 154.086 449.444 153.535C447.843 152.977 446.156 152.711 444.462 152.75L444.172 152.825C444.91 154.988 447.225 154.939 448.238 156.859Z" fill="#04D361"/>
<path d="M398.415 161.284L398.419 161.293L398.504 161.13L398.415 161.284Z" fill="#04D361"/>
<path d="M396.631 164.766C396.241 165.478 395.907 166.219 395.629 166.983C395.262 168.22 395.019 169.491 394.904 170.776C394.813 171.507 394.785 172.441 395.24 172.797C395.37 172.885 395.528 172.921 395.683 172.9C395.838 172.879 395.98 172.801 396.083 172.682C396.335 172.413 396.542 172.103 396.694 171.766C397.587 170.216 398.28 168.557 398.757 166.83C399.255 164.997 399.136 163.05 398.419 161.293C397.823 162.451 397.227 163.608 396.631 164.766Z" fill="#04D361"/>
<path d="M379.415 71.9973C379.698 72.2766 380.057 72.4662 380.446 72.5428C380.835 72.6193 381.237 72.5795 381.604 72.4281C382.364 72.0933 383.061 71.6293 383.665 71.0563C384.164 70.6835 384.588 70.2172 384.914 69.6829C385.093 69.3636 385.207 69.0118 385.251 68.6477C385.295 68.2836 385.267 67.9143 385.169 67.5611C385.029 67.2227 384.806 66.9258 384.521 66.6984C384.236 66.471 383.898 66.3207 383.539 66.2616C382.528 65.9593 381.517 65.6571 380.506 65.3549L381.237 64.6904C380.485 64.2832 379.652 65.0388 379.182 65.9743C378.88 66.5851 378.67 67.2376 378.558 67.9105C378.398 68.6135 378.392 69.3433 378.54 70.049C378.688 70.7548 378.986 71.4196 379.415 71.9973Z" fill="#04D361"/>
<path d="M397.266 65.9563C397.551 66.273 397.945 66.4685 398.368 66.5032C398.79 66.5379 399.21 66.4091 399.542 66.143C399.828 65.9266 400.066 65.652 400.239 65.337C400.413 65.022 400.518 64.6737 400.549 64.3148C400.621 63.5131 400.228 62.622 399.666 62.5527L399.795 61.8021C398.713 61.6051 397.381 61.5657 396.801 62.8901C396.606 63.3975 396.546 63.9477 396.627 64.4858C396.709 65.0238 396.929 65.5309 397.266 65.9563Z" fill="#04D361"/>
<g opacity="0.35">
<path d="M568.437 130.574C574.408 127.95 562.299 126.422 548.561 125.92C534.822 125.418 518.203 125.446 509.424 124.017C500.933 122.635 501.558 120.178 500.844 117.952C500.13 115.726 496.866 113.444 483.616 112.949C467.106 112.332 439.879 114.706 427.415 113.281C415.785 111.951 422.698 107.78 405.738 107.62C396.054 107.529 383.578 108.904 372.802 109.236C365.163 109.57 357.51 109.168 349.948 108.035C344.696 107.168 341.037 106.068 335.126 105.302C319.606 103.29 289.243 103.966 262.142 106.544C235.041 109.122 211.811 113.348 198.71 117.532C185.609 121.717 181.989 125.838 185.041 129.332C186.989 131.563 191.976 133.649 204.073 134.545C226.698 136.222 266.982 133.336 290.361 134.862C303.392 135.712 309.173 137.82 320.606 138.974C332.889 140.213 350.87 140.279 368.536 140.249C405.32 140.188 443.044 139.807 481.511 139.108C497.578 138.817 514.414 138.437 531.511 137.047C548.607 135.656 566.046 132.973 569.652 130.457" fill="white"/>
</g>
<path d="M464.629 246.487C456.281 246.487 447.131 246.169 437.179 245.533C385.707 242.238 319.034 230.783 249.443 213.278C179.852 195.772 115.656 174.308 68.6827 152.84C45.8004 142.381 28.2384 132.482 16.485 123.416C4.04119 113.817 -1.4019 105.451 0.306272 98.5501C3.63457 85.1056 33.1053 82.1642 57.2422 82.0643L57.2504 84.0195C24.1041 84.1566 4.54946 89.4854 2.18842 99.0237C-0.819132 111.172 23.7092 130.138 69.4836 151.059C116.354 172.48 180.432 193.903 249.913 211.381C319.393 228.858 385.943 240.294 437.302 243.582C487.459 246.793 517.952 241.667 520.96 229.519C523.456 219.432 506.996 204.573 474.61 187.679L475.502 185.942C499.034 198.218 526.348 215.825 522.842 229.992C521.133 236.893 512.429 241.7 496.971 244.28C488.159 245.75 477.336 246.487 464.629 246.487Z" fill="#04D361"/>
<path d="M146.113 249.033C123.097 249.034 101.7 248.237 82.545 246.631C57.5072 244.531 37.6665 241.154 23.5748 236.597C8.65511 231.77 0.73986 225.734 0.0488171 218.656C-1.2979 204.866 25.4794 192.114 48.1799 183.845L48.839 185.684C17.6655 197.04 1.02369 208.681 1.97894 218.465C3.1956 230.925 32.6193 240.481 82.7057 244.682C133.992 248.984 201.484 247.46 272.751 240.387C344.018 233.317 410.511 221.548 459.98 207.25C508.293 193.286 535.304 178.13 534.087 165.67C533.077 155.324 512.621 146.905 476.487 141.961L476.748 140.023C503.003 143.615 534.599 150.947 536.017 165.478C536.709 172.557 530.112 180.033 516.413 187.698C503.473 194.939 484.666 202.149 460.515 209.129C410.936 223.46 344.321 235.251 272.941 242.334C228.163 246.776 184.855 249.033 146.113 249.033Z" fill="#04D361"/>
<path d="M283.081 290.33C289.324 290.33 294.385 285.229 294.385 278.936C294.385 272.643 289.324 267.542 283.081 267.542C276.839 267.542 271.778 272.643 271.778 278.936C271.778 285.229 276.839 290.33 283.081 290.33Z" fill="#04D361"/>
<path d="M60.4984 223.059C66.7411 223.059 71.8017 217.958 71.8017 211.665C71.8017 205.372 66.7411 200.27 60.4984 200.27C54.2558 200.27 49.1951 205.372 49.1951 211.665C49.1951 217.958 54.2558 223.059 60.4984 223.059Z" fill="#E6E6E6"/>
<path d="M268.033 48.4072C271.855 48.4072 274.953 45.2843 274.953 41.4321C274.953 37.5799 271.855 34.4571 268.033 34.4571C264.212 34.4571 261.114 37.5799 261.114 41.4321C261.114 45.2843 264.212 48.4072 268.033 48.4072Z" fill="#04D361"/>
<path d="M226.169 101.061C232.411 101.061 237.472 95.9595 237.472 89.6666C237.472 83.3737 232.411 78.2723 226.169 78.2723C219.926 78.2723 214.865 83.3737 214.865 89.6666C214.865 95.9595 219.926 101.061 226.169 101.061Z" fill="#E6E6E6"/>
</g>
<defs>
<clipPath id="clip0_3_5">
<rect width="570" height="383" fill="white"/>
</clipPath>
</defs>
</svg>
